<?xml version="1.0" encoding="UTF-8"?>
<svg version="1.1" viewBox="0 0 1676 1492" width="1280" height="1280" xmlns="http://www.w3.org/2000/svg">
<path transform="translate(0)" d="m0 0h1676v1492h-1676z" fill="#0B0B0B"/>
<path transform="translate(701,271)" d="m0 0h55l28 4 25 6 35 11 28 13 24 12 23 13 15 9 17 12 12 9 14 11 18 12 4 2 4-1 14-12 13-11 16-9 21-8 15-4 6-1h27l17 4 14 6 14 10 10 9 10 11 9 11 11 16 10 18 8 20 9 29 5 23 5 28 3 25 1 12v78l-5 37-2 10h-5l-3-3-2-36-4-43-4-27-10-48-8-30-8-22-14-29-12-20-9-11-5-6-10-8-14-7-7-2-16-1-16 2-10 4-8 5-7 7-7 6h-2l1 5 8 8 12 9 13 10 13 12 16 16 7 8 10 10 7 8 11 12 14 18 11 17 13 22 8 16 7 18 5 21 2 14v33l-3 18-2 7 4 2 23 3 27 8 20 9 14 8 9 7 10 9 11 14 8 14 5 14 2 11v21l-3 20-8 24-8 16-8 15-11 15-9 10-11 14-7 7-7 8-9 9-14 11-17 13-12 8-16 11-25 16-19 11-16 8-28 13-27 10-9 2 7 25 3 15 1 12-2 20-3 16-6 18-8 14-9 11-12 11-15 9-11 5-17 5-24 4-10 1h-33l-24-3-25-6-31-11-34-14-39-19-18-10-21-13-17-13-16-12-11-9-8-11-8 6-8 7-12 10-19 12-14 6-19 6-20 4h-17l-19-4-15-6-13-9-13-12-13-16-11-16-12-22-7-16-9-25-8-30-4-21-3-23-2-22-1-21v-32l2-33 3-23 4-19 2-4h3l3 35 4 48 6 39 9 43 10 35 8 21 8 16 9 17 14 19 10 11 10 7 14 7 14 4h7l16-5 12-6 10-8 8-7-1-5-4-5-11-9-7-7-8-7-10-9-13-13-7-8-11-12-8-8-7-8-11-14-10-13-13-18-12-20-10-21-8-24-3-15-1-8v-35l3-18 2-4v-3l-41-7-27-9-16-9-9-7-8-7-9-11-12-19-7-15-4-16v-22l4-20 10-26 8-16 6-10 10-13 11-13 9-11 9-10 4-5 8-7 8-8 11-9 16-13 30-21 15-9 18-10 30-16 24-10 23-10 9-4-1-5-8-27-1-5v-11l2-21 4-17 7-17 9-15 8-10 11-11 16-10 11-5 17-4z" fill="#fff"/>
<path transform="translate(590,790)" d="m0 0h34l26 5 25 7 21 7 15 6 5 4v22l-4 37-5 30-9 38-8 26-11 28-17 36-8 12-4 8-4 5-5-2-10-9-8-10-13-15-11-14-12-13-10-14-21-31-9-15-10-21-8-19-6-23-2-10v-28l3-14 8-16 6-5 16-6z" fill="#0B0B0B"/>
<path transform="translate(1207,760)" d="m0 0h8l-2 10-7 24-13 37-10 26-12 26-11 20-20 30-9 11-9 9-7 8-10 9-16 10-18 6h-22l-7-3-8-7-9-10-13-17-10-13-8-13-9-20-5-17-9-41-3-20 1-5 19-9 29-12 34-13 40-13 19-5 32-5 16-2z" fill="#0B0B0B"/>
<path transform="translate(617,508)" d="m0 0h17l12 3 5 4 9 11 13 16 7 9 7 10 9 17 8 21 8 30 3 14 2 15v15l-9 6-19 8-27 11-20 7-36 12-27 8-26 5-20 3-11 1h-50l2-11 12-39 11-30 13-28 9-20 14-24 11-16 9-12 9-11 8-8 11-9 8-6 10-6 13-5z" fill="#0B0B0B"/>
<path transform="translate(1041,433)" d="m0 0 5 2 9 10 10 10 9 11 10 11 9 11 11 13 12 17 10 15 14 24 11 23 9 23 5 20 1 7v28l-3 14-7 13-6 5-11 5-21 6-12 2-13 1h-23l-17-2-24-5-36-12-18-8-3-3-1-6v-17l5-40 5-29 9-35 12-34 14-35 15-28 8-14z" fill="#0B0B0B"/>
<path transform="translate(842,895)" d="m0 0 8 2 11 7 16 13 16 12 17 13 10 9 7 7 8 7 20 20 9 11 11 13 13 18 10 15 12 20 6 12-1 3-11 4-37 8-25 4-30 4-23 2h-40l-26-3-19-4-19-7-16-8-16-11-8-11-4-9-1-5v-9l6-18 11-27 6-14 7-11 13-15 7-8 16-16h2l2-4 5-4 5-5 11-9z" fill="#0B0B0B"/>
<path transform="translate(792,396)" d="m0 0h53l24 4 23 6 16 7 12 7 12 11 6 7 7 14 1 8-11 27-9 24-8 15-10 14-9 10-7 8-14 14-8 7-13 11-14 10-6-1-10-6-15-12-12-8-14-11-14-12-13-12-8-7-15-14-1-3h-2l-9-11-7-7-9-11-12-16-11-18-13-23-4-8v-3l23-5 60-12z" fill="#0B0B0B"/>
<path transform="translate(611,439)" d="m0 0h5l3 6v12l-9 4-15 6-19 10-12 9-13 12-10 9-10 13-12 19-9 16-8 16-12 27-8 24-13 49-5 22-7 38-8-1-20-7-10-6-10-8-7-8-4-12-1-5v-23l5-21 12-25 15-22 12-17 12-14 11-13 13-13 8-7 10-10 11-9 13-11 16-12 15-10 14-10 16-10 14-8 13-8z" fill="#0B0B0B"/>
<path transform="translate(1230,764)" d="m0 0 10 1 16 6 8 4 9 7 8 8 7 14 2 10v18l-3 16-5 13-12 24-9 14-13 18-10 13-9 9-7 8-16 15-11 10-10 8-13 11-14 11-10 8-42 28-20 12-11 8-3-1-5-10-2-9 10-5 15-6 17-8 18-13 11-9 12-11 14-20 11-18 8-15 14-31 12-36 9-32 11-56 2-13z" fill="#0B0B0B"/>
<path transform="translate(737,309)" d="m0 0h34l31 5 31 8 39 12 30 10 33 15 19 10 25 13 11 7 6 6-1 4-7 8-4 4-4-1-9-11-14-10-21-12-16-7-16-5-19-3h-49l-36 4-43 9-32 8-34 12-17 7-9 1-4-10-3-16v-17l5-16 5-8 7-7 14-10 9-4 22-4z" fill="#0B0B0B"/>
<path transform="translate(701,1084)" d="m0 0 4 2 8 8v2l4 2 10 9 17 10 23 9 20 5 14 2h38l33-3 30-5 27-6 40-11 36-12 14-5 5 1 3 15 1 10v19l-3 12-4 7-11 12-14 8-18 6-21 4h-43l-29-5-59-15-29-10-24-10-46-23-21-12-13-7 1-7z" fill="#0B0B0B"/>
<path transform="translate(837,696)" d="m0 0h11l9 4 26 13 5 6 1 3 2 36v12l-4 5-16 10-9 6-12 7h-12l-17-8-19-11-4-8-1-5v-40l4-8 24-15z" fill="#0B0B0B"/>
</svg>
